<?xml version="1.0" encoding="UTF-8"?>
<!-- Created with Inkscape (http://www.inkscape.org/) -->
<svg id="svg1" width="147" height="48" version="1.1" viewBox="0 0 38.894 12.7" xml:space="preserve" xmlns="http://www.w3.org/2000/svg" xmlns:xlink="http://www.w3.org/1999/xlink"><g id="layer1"><g id="Group_93" transform="matrix(.25462 0 0 .25462 -.17964 .020736)" data-name="Group 93"><path id="path1-9" d="m127.38 24.6v-2.8556h1.2981c1.4773 0 1.8964 0.06687 2.3066 0.36816 0.97351 0.71496 0.97874 2.3053 0.011 3.0049-0.35142 0.25377-0.85506 0.3641-1.6675 0.36532l-0.701 7.97e-4v1.9717h-1.2462zm2.642-0.29877c0.27295-0.12442 0.41119-0.35062 0.41119-0.67268 0-0.58046-0.23338-0.72829-1.1496-0.72829h-0.65734v1.4958h0.59393c0.367 0 0.67342-0.03619 0.80187-0.09482zm1.4081 3.114c0-0.02219 0.453-1.3081 1.0067-2.8576l1.0067-2.8173 0.71876 0.01903 0.71878 0.01904 0.9841 2.7876c0.54127 1.5332 0.9845 2.8116 0.98502 2.8409 5.2e-4 0.02932-0.29779 0.04465-0.66286 0.03394l-0.66383-0.01926-0.21702-0.6629-0.21699-0.6629h-1.9519l-0.215 0.67988-0.21501 0.6799-0.63866 5e-6c-0.35128 9e-6 -0.63867-0.01814-0.63867-0.04032zm3.2673-2.5603c-0.21182-0.7452-0.58229-1.7651-0.61113-1.6828-0.0195 0.05614-0.16149 0.49207-0.31515 0.96886l-0.27946 0.86687h0.62463c0.61911 0 0.62426-0.0017 0.58112-0.15298zm2.839-0.25496v-2.8556h1.1553l2.3029 3.4331 0.0165-1.7165 0.0165-1.7165h1.1817v5.7112h-1.1043l-1.1768-1.764c-0.64724-0.9702-1.1978-1.7657-1.2236-1.7677-0.0255-0.0025-0.0471 0.79173-0.0471 1.764v1.7677h-1.1216zm5.9194 0v-2.8556h3.9255v1.1558h-2.6794v1.1558h1.8693v1.0878h-1.8693v1.1558h2.6794v1.1558h-3.9255zm4.9848 0v-2.8556h1.2462v4.5553h2.5547v1.1558h-3.8009z" fill="#4d4d4d" stroke-width=".76876"/><path id="path1" d="m88.205 27.363c-0.41751-0.09371-1.0979-0.40442-1.3736-0.62724l-0.15998-0.12931 0.31214-0.47181c0.17167-0.2595 0.33459-0.47181 0.36201-0.47181 0.0275 0 0.21696 0.10392 0.42118 0.23093 0.54448 0.33862 0.93826 0.45565 1.4254 0.42361 0.6205-0.04086 0.88623-0.29888 0.77577-0.75343-0.05117-0.21051-0.34691-0.33456-1.1038-0.46299-0.92604-0.15712-1.2911-0.27956-1.5597-0.52311-0.48391-0.43882-0.61257-1.1736-0.31934-1.824 0.47923-1.063 2.2254-1.341 3.7033-0.58972 0.2575 0.1309 0.46818 0.26493 0.46818 0.29786 0 0.07258-0.57696 0.93327-0.6256 0.93327-0.01879 0-0.24906-0.10955-0.51134-0.24342-0.99406-0.5074-2.0948-0.30918-1.935 0.34847 0.05432 0.2234 0.2933 0.32838 1.0378 0.45584 1.2828 0.21962 1.7793 0.46272 2.0278 0.99281 0.27426 0.58506 0.12288 1.4632-0.32626 1.8927-0.55119 0.52716-1.6333 0.74257-2.619 0.52134zm26.164 0.0081c-1.3923-0.34934-2.263-1.67-2.0916-3.1722 0.0994-0.87043 0.73292-1.7868 1.4913-2.157 1.9041-0.92951 4.0578 0.42624 4.0578 2.5544 0 1.8598-1.692 3.2178-3.4575 2.7748zm1.3389-1.3149c0.4428-0.23175 0.76252-0.84386 0.76252-1.4599 0-0.92227-0.61057-1.6236-1.4124-1.6223-0.84814 0.0016-1.4251 0.65729-1.4268 1.6223-3e-3 1.2476 1.0581 1.993 2.0768 1.4599zm-57.838-1.4432 1.0511-2.7845 1.5292-0.03538 1.0408 2.8022 1.0408 2.8022h-0.7179l-0.71791-9e-6 -0.44675-1.3371-2.0072 0.03648-0.21696 0.65027-0.21693 0.65027h-1.3894zm2.4081 0.33088c-0.01177-0.0289-0.14971-0.43525-0.3064-0.90294-0.15668-0.46768-0.30463-0.82666-0.32877-0.79773-0.05127 0.06132-0.58102 1.6058-0.58102 1.6938 0 0.03276 0.27848 0.0595 0.61886 0.0595 0.34036 0 0.60916-0.02359 0.59733-0.05261zm2.8521-0.34756v-2.8012h1.2238c0.67307 0 1.3778 0.03382 1.566 0.07504 1.1008 0.24141 1.9259 1.14 2.1264 2.3158 0.23397 1.3719-0.72438 2.8174-2.0822 3.1408-0.15576 0.03709-0.85711 0.06811-1.5586 0.06907l-1.2754 0.0016zm2.9486 1.3639c0.80182-0.65782 0.80182-2.07 0-2.7278-0.23482-0.19265-0.28358-0.20463-0.92021-0.22617l-0.67225-0.02277v3.2256l0.67225-0.02274c0.63663-0.0216 0.68539-0.03354 0.92021-0.22617zm2.9279-1.3658v-2.8031l1.6987 0.03714 1.3269 2.6591 1.2686-2.6834 0.85564-0.0048 0.85563-0.0047v5.6023h-1.2895l-0.01712-1.8608-0.01712-1.8608-0.83383 1.6366c-0.74697 1.4661-0.8428 1.6239-0.92001 1.5149-0.04745-0.06698-0.44225-0.82517-0.87744-1.6849l-0.79125-1.5632-0.01712 1.9091-0.01712 1.9091h-1.225zm7.1034 0.0016v-2.8012h1.3561v5.6023h-1.3561zm2.4539 0v-2.8012h1.2789l2.3697 3.3444 0.03424-3.3444h1.2247v5.6073l-1.183-0.03828-1.1787-1.6581c-0.64808-0.912-1.2094-1.69-1.2471-1.729-0.04841-0.04999-0.05655 0.44262-0.02761 1.6748l0.04098 1.7457h-1.3121zm6.0702 0v-2.8012h1.3561v5.6023h-1.3561zm8.7824 0.60025v-2.201h-1.7435v-1.2006h4.7786v1.2005h-1.7436v4.4018h-1.2915zm3.81-0.60447v-2.8054l1.5983 0.0209c1.519 0.01988 1.615 0.02876 1.9358 0.17852 0.68757 0.32108 1.1159 1.0784 1.0195 1.8025-0.0597 0.44859-0.35616 0.95098-0.69968 1.186l-0.28605 0.19564 0.56583 1.1136 0.56588 1.1136h-1.4713l-0.49921-1.0338-0.49923-1.0338h-0.87371v2.0675h-1.3561zm2.8754-0.40893c0.18511-0.08705 0.35338-0.36676 0.35338-0.58726 0-0.22049-0.16828-0.50017-0.35338-0.58726-0.0968-0.04553-0.4585-0.07972-0.84429-0.07972h-0.67502v1.3339h0.67502c0.38577 0 0.74754-0.03416 0.84429-0.07971zm3.1651 0.42982 1.0511-2.7845 1.5292-0.03538 2.0816 5.6045h-0.71793l-0.7179-1.1e-5 -0.22336-0.66856-0.22334-0.66856-1.0036 0.01829-1.0036 0.01828-0.21689 0.65026-0.21695 0.65027h-1.3894zm2.4081 0.33089c-0.0125-0.02889-0.14967-0.43526-0.30639-0.90295-0.15663-0.46768-0.30463-0.82666-0.32878-0.79774-0.0511 0.06138-0.58104 1.6058-0.58104 1.6938 0 0.03276 0.27855 0.0595 0.61889 0.0595 0.34035 0 0.60917-0.02358 0.59731-0.05261zm3.3042 0.25268v-2.2009h-1.7436v-1.2007h4.7786v1.2005h-1.7436v4.4018h-1.2915zm9.8156-0.60447v-2.8054l1.5982 0.0209c1.519 0.01988 1.615 0.02876 1.9358 0.17852 0.6876 0.32108 1.116 1.0784 1.0195 1.8025-0.0596 0.44859-0.35615 0.95098-0.69973 1.186l-0.28604 0.19564 0.56588 1.1136 0.5659 1.1136h-1.4714l-0.49922-1.0338-0.49924-1.0338h-0.87369v2.0675h-1.3561zm2.8754-0.40893c0.1851-0.08707 0.35333-0.36676 0.35333-0.58726 0-0.22049-0.16831-0.50017-0.35333-0.58726-0.0968-0.04553-0.45853-0.07972-0.84433-0.07972h-0.675v1.3339h0.675c0.38584 0 0.74757-0.03416 0.84433-0.07972z" fill="#8a01a9" stroke-width=".77512"/><g id="layer1-5" transform="matrix(3.2429 0 0 3.2429 -229.6 -287.12)"><circle id="path1-3" cx="78.869" cy="96.045" r="7.2099" fill="#800080"/><path id="path9" d="m78.97 91.017a4.8974 4.8974 0 0 1 4.4979 2.9951 2.1167 2.1167 0 0 0 0.90752 1.0583 1.5187 1.5187 0 0 1 0.79375 1.3494 1.5505 1.5505 0 0 1-1.5266 1.5108 1.5293 1.5293 0 0 1-1.5214-1.5372 1.5055 1.5055 0 0 1 0.38893-1.0107 1.4817 1.4817 0 0 0 0.15346-1.7542 4.3339 4.3339 0 0 0-7.3872 0 1.4764 1.4764 0 0 0 0.15081 1.7542 1.4922 1.4922 0 0 1 0.38894 1.0107 1.5293 1.5293 0 0 1-1.5266 1.5266 1.5531 1.5531 0 0 1-1.5293-1.5108 1.5161 1.5161 0 0 1 0.79375-1.3494 2.1167 2.1167 0 0 0 0.90752-1.0583 4.8948 4.8948 0 0 1 4.5085-2.9845z" fill="#fff" stroke-width=".26458"/></g></g></g></svg>
